<svg width="22" height="20" viewBox="0 0 22 20" fill="none" xmlns="http://www.w3.org/2000/svg">
<circle cx="7.5" cy="7.75" r="2.25" stroke="white" stroke-width="1.5" stroke-linecap="round" stroke-linejoin="round"/>
<path d="M1 16.5V3.541C1 2.414 1.914 1.5 3.041 1.5H19C20.105 1.5 21 2.395 21 3.5V16.5C21 17.605 20.105 18.5 19 18.5H3C1.895 18.5 1 17.605 1 16.5Z" stroke="white" stroke-width="1.5" stroke-linecap="round" stroke-linejoin="round"/>
<line x1="14.75" y1="6.75" x2="17.25" y2="6.75" stroke="white" stroke-width="1.5" stroke-linecap="round" stroke-linejoin="round"/>
<line x1="15.65" y1="12.25" x2="14.75" y2="12.25" stroke="white" stroke-width="1.5" stroke-linecap="round" stroke-linejoin="round"/>
<path d="M11.095 14.5C10.92 14.061 10.65 13.667 10.303 13.346C9.71701 12.802 8.94601 12.5 8.14601 12.5H6.85401C6.05501 12.5 5.28401 12.802 4.69701 13.346C4.35101 13.667 4.08001 14.061 3.90601 14.5" stroke="white" stroke-width="1.5" stroke-linecap="round" stroke-linejoin="round"/>
</svg>
