<svg width="26" height="15" viewBox="0 0 26 15" fill="none" xmlns="http://www.w3.org/2000/svg">
<mask id="mask0_1_1558" style="mask-type:alpha" maskUnits="userSpaceOnUse" x="0" y="0" width="26" height="15">
<rect x="-7.62939e-06" width="26" height="15" fill="white"/>
</mask>
<g mask="url(#mask0_1_1558)">
<path d="M0.644485 -0.560791H25.1651V15.2269H0.644485V-0.560791Z" fill="#CE1126"/>
<path d="M0.644485 4.70166H25.1651V15.2268H0.644485V4.70166Z" fill="white"/>
<path d="M0.644485 9.96436H25.1651V15.2269H0.644485V9.96436Z" fill="black"/>
<path d="M15.2955 6.34823C15.2622 6.33123 15.2247 6.30398 15.2122 6.2875C15.1935 6.26226 15.2043 6.26123 15.2816 6.28151C15.4199 6.31781 15.5092 6.30358 15.5977 6.23121L15.6757 6.16765L15.7676 6.21283C15.8182 6.23749 15.8719 6.2546 15.8874 6.25063C15.9272 6.24048 16.0097 6.13827 16.007 6.10289C16.0038 6.0591 16.042 6.07016 16.0605 6.1181C16.0972 6.21202 16.0438 6.31989 15.9492 6.34385C15.9031 6.35538 15.8604 6.35117 15.7905 6.32772C15.7047 6.2988 15.69 6.29926 15.647 6.33106C15.5505 6.40251 15.4162 6.40902 15.2955 6.34823ZM15.6375 6.04619C15.604 6.00488 15.5636 5.8489 15.5767 5.81064C15.5881 5.77746 15.6006 5.77031 15.6312 5.78028C15.686 5.79682 15.6986 5.83329 15.6905 5.95683C15.6841 6.05749 15.6686 6.08399 15.6375 6.04619ZM11.6095 5.93464C11.5984 6.00955 11.7482 6.19785 11.8158 6.23184C11.7698 6.25172 11.7127 6.24267 11.6706 6.26503C11.435 6.49251 10.5748 7.30252 10.4177 7.49612C10.883 7.505 11.399 7.49002 11.8352 7.47077C11.8348 7.16539 12.1346 7.14972 12.3352 7.03851C12.4384 7.19552 12.6976 7.18348 12.73 7.41978L12.7306 8.43653H8.75507C8.68514 8.73477 8.40641 8.96231 8.01801 8.86868C8.13817 8.74745 8.34048 8.70579 8.41297 8.53829C8.47406 8.17154 8.2909 7.94504 8.17254 7.73703C8.36846 7.66818 8.39817 7.65095 8.59732 7.52171C8.45748 7.93196 8.96125 7.8869 9.33431 7.87751C9.34624 7.73824 9.34028 7.57385 9.22895 7.55346C9.3719 7.50333 9.39564 7.48616 9.62391 7.29924V7.85198L12.3767 7.84622C12.3767 7.67325 12.4241 7.39541 12.2824 7.39541C12.147 7.39541 12.276 7.75109 12.1708 7.75109H10.0451L10.0437 7.39817C10.1332 7.31174 10.1231 7.31866 10.7387 6.7242C10.8 6.66485 11.2316 6.28871 11.6095 5.93464ZM16.9229 5.91943C17.0713 5.99664 17.1888 6.10381 17.3705 6.14829C17.3493 6.22089 17.2824 6.2497 17.2649 6.32616V7.87613C17.4678 7.91934 17.5105 7.80825 17.6071 7.74907C17.6335 7.99724 17.7972 8.24057 17.7914 8.43474H16.9226L16.9228 5.91828L16.9229 5.91943ZM15.7647 6.74984L16.0807 6.48231V7.83545L16.3083 7.8351L16.3012 6.31752C16.3936 6.22821 16.5745 6.09857 16.6197 6.0088V8.43227L14.6244 8.43296C14.595 7.92994 14.59 7.40906 15.1972 7.52107V7.31578C15.1793 7.2812 15.1454 7.32425 15.1376 7.27861C15.234 7.18544 15.2667 7.16164 15.5277 6.94142L15.5325 7.83452L15.7626 7.83475C15.7627 7.83487 15.7647 6.78458 15.7647 6.74984ZM15.0159 7.82167C15.0586 7.88362 15.2041 7.88252 15.1973 7.77817C15.1734 7.69215 14.9815 7.72493 15.0159 7.82167Z" fill="#007A3D"/>
<circle cx="9.6181" cy="9.104" r="0.5" fill="#007A3D"/>
<path d="M12.9999 5.92208C13.1484 5.99929 13.2659 6.10589 13.4475 6.15083C13.4265 6.22343 13.3595 6.25224 13.342 6.3287V7.87924C13.5449 7.92245 13.5877 7.81125 13.6842 7.75213C13.7105 8.00035 13.8743 8.24351 13.8685 8.4378H12.9998L12.9999 5.92208Z" fill="#007A3D"/>
</g>
</svg>
