<svg width="27" height="27" viewBox="0 0 27 27" fill="none" xmlns="http://www.w3.org/2000/svg">
<path d="M1.96155 4.96155C1.96155 3.3047 3.30469 1.96155 4.96155 1.96155H22.0385C23.6953 1.96155 25.0385 3.30469 25.0385 4.96155V22.0385C25.0385 23.6953 23.6953 25.0385 22.0385 25.0385H4.96155C3.3047 25.0385 1.96155 23.6953 1.96155 22.0385V4.96155Z" stroke="black" stroke-width="2" stroke-linecap="round" stroke-linejoin="round"/>
<path d="M7.08972 7.58972C7.08972 7.31358 7.31358 7.08972 7.58972 7.08972H11.0769C11.353 7.08972 11.5769 7.31358 11.5769 7.58972V11.0769C11.5769 11.353 11.353 11.5769 11.0769 11.5769H7.58972C7.31358 11.5769 7.08972 11.353 7.08972 11.0769V7.58972Z" stroke="black" stroke-width="2" stroke-linecap="round" stroke-linejoin="round"/>
<line x1="16.4231" y1="6.08972" x2="18.9103" y2="6.08972" stroke="black" stroke-width="2" stroke-linecap="round" stroke-linejoin="round"/>
<line x1="16.4231" y1="10.5769" x2="18.9103" y2="10.5769" stroke="black" stroke-width="2" stroke-linecap="round" stroke-linejoin="round"/>
<line x1="8.08972" y1="14.4231" x2="18.9102" y2="14.4231" stroke="black" stroke-width="2" stroke-linecap="round" stroke-linejoin="round"/>
<line x1="8.08972" y1="18.9103" x2="18.9102" y2="18.9103" stroke="black" stroke-width="2" stroke-linecap="round" stroke-linejoin="round"/>
</svg>
