<svg width="18" height="20" viewBox="0 0 18 20" fill="none" xmlns="http://www.w3.org/2000/svg">
<path d="M12.0489 13H14.5579C15.4189 13 16.1839 13.551 16.4559 14.368L17.1229 16.368C17.5539 17.663 16.5899 19 15.2249 19H2.77495C1.40995 19 0.445948 17.663 0.876948 16.368L1.54395 14.368C1.81595 13.551 2.58095 13 3.44195 13H5.95095" stroke="#04985A" stroke-width="1.5" stroke-linecap="round" stroke-linejoin="round"/>
<path d="M9 16C9 16 3 11.208 3 6.833C3 3.612 5.686 1 9 1C12.314 1 15 3.612 15 6.833C15 11.208 9 16 9 16Z" stroke="#04985A" stroke-width="1.5" stroke-linecap="round" stroke-linejoin="round"/>
<circle cx="9" cy="7" r="2" stroke="#04985A" stroke-width="1.5" stroke-linecap="round" stroke-linejoin="round"/>
</svg>
