<svg width="14" height="16" viewBox="0 0 14 16" fill="none" xmlns="http://www.w3.org/2000/svg">
<path d="M1.72131 4.7239C1.72131 4.1567 2.18112 3.6969 2.74831 3.6969H12.1054C12.6731 3.6969 13.1334 4.15715 13.1334 4.7249V4.93435C13.1334 5.50155 12.6736 5.96135 12.1064 5.96135H2.74831C2.18112 5.96135 1.72131 5.50154 1.72131 4.93435V4.7239Z" stroke="#FF151E" stroke-width="1.5" stroke-linecap="round" stroke-linejoin="round"/>
<path d="M11.9567 5.9613L11.3174 13.6348C11.2517 14.4175 10.5981 15.0191 9.81304 15.0191H5.0426C4.2576 15.0191 3.60392 14.4175 3.53826 13.6348L2.89893 5.9613" stroke="#FF151E" stroke-width="1.5" stroke-linecap="round" stroke-linejoin="round"/>
<path d="M4.40857 3.69694L5.33246 1.84991C5.46003 1.59403 5.72119 1.4325 6.00727 1.4325H8.8484C9.13447 1.4325 9.39564 1.59403 9.5232 1.84991L10.4471 3.69694" stroke="#FF151E" stroke-width="1.5" stroke-linecap="round" stroke-linejoin="round"/>
<line x1="8.17761" y1="8.97583" x2="8.17761" y2="12.0047" stroke="#FF151E" stroke-width="1.5" stroke-linecap="round" stroke-linejoin="round"/>
<line x1="10.3894" y1="9.02498" x2="10.1832" y2="12.0573" stroke="#FF151E" stroke-width="1.5" stroke-linecap="round" stroke-linejoin="round"/>
<line x1="5.96224" y1="8.92322" x2="6.16844" y2="11.9556" stroke="#FF151E" stroke-width="1.5" stroke-linecap="round" stroke-linejoin="round"/>
</svg>
