<svg width="20" height="13" viewBox="0 0 20 13" fill="none" xmlns="http://www.w3.org/2000/svg">
<path fill-rule="evenodd" clip-rule="evenodd" d="M0.0687561 6.77634H7.7919V0.558105H0.0687561V6.77634Z" fill="#051666"/>
<path fill-rule="evenodd" clip-rule="evenodd" d="M19.3803 1.44629H7.79196V2.33459H19.3803V1.44629Z" fill="#FCFCFC"/>
<path fill-rule="evenodd" clip-rule="evenodd" d="M19.3803 3.22314H7.79196V4.11154H19.3803V3.22314Z" fill="#FCFCFC"/>
<path fill-rule="evenodd" clip-rule="evenodd" d="M19.3803 4.99976H7.79196V5.88806H19.3803V4.99976Z" fill="#FCFCFC"/>
<path fill-rule="evenodd" clip-rule="evenodd" d="M19.3801 6.77637H0.0687561V7.6647H19.3801V6.77637Z" fill="#FCFCFC"/>
<path fill-rule="evenodd" clip-rule="evenodd" d="M19.3801 8.55298H0.0687561V9.44128H19.3801V8.55298Z" fill="#FCFCFC"/>
<path fill-rule="evenodd" clip-rule="evenodd" d="M19.3801 10.3296H0.0687561V11.2179H19.3801V10.3296Z" fill="#FCFCFC"/>
<path fill-rule="evenodd" clip-rule="evenodd" d="M19.3795 11.2182H0.0683594V12.106H19.3795V11.2182ZM19.3795 9.44135H0.0683594V10.3291H19.3795V9.44135ZM19.3795 7.6644H0.0683594V8.5535H19.3795V7.6644ZM19.3795 5.88757H7.79202V6.7767H19.3795V5.88757ZM19.3795 4.11191H7.79202V4.99973H19.3795V4.11191ZM19.3795 2.33499H7.79202V3.22275H19.3795V2.33499ZM19.3795 0.558105H7.79202V1.44589H19.3795V0.558105Z" fill="#C92B1D"/>
<path fill-rule="evenodd" clip-rule="evenodd" d="M0.642456 0.762695L0.717163 0.990143L0.960144 0.989777L0.763306 1.12988L0.838867 1.35706L0.642456 1.21616L0.446289 1.35706L0.52179 1.12988L0.324951 0.989777L0.567871 0.990143L0.642456 0.762695Z" fill="#FCFCFC"/>
<path fill-rule="evenodd" clip-rule="evenodd" d="M3.21555 0.762695L3.29016 0.990143L3.53317 0.989777L3.33627 1.12988L3.41183 1.35706L3.21555 1.21616L3.0192 1.35706L3.0947 1.12988L2.89786 0.989777L3.14084 0.990143L3.21555 0.762695Z" fill="#FCFCFC"/>
<path fill-rule="evenodd" clip-rule="evenodd" d="M5.7883 0.762695L5.86301 0.990143L6.10605 0.989777L5.90912 1.12988L5.98465 1.35706L5.7883 1.21616L5.59207 1.35706L5.66757 1.12988L5.47076 0.989777L5.71378 0.990143L5.7883 0.762695Z" fill="#FCFCFC"/>
<path fill-rule="evenodd" clip-rule="evenodd" d="M1.92896 0.762695L2.0036 0.990143L2.24649 0.989777L2.04968 1.12988L2.12524 1.35706L1.92896 1.21616L1.7326 1.35706L1.80814 1.12988L1.61139 0.989777L1.85431 0.990143L1.92896 0.762695Z" fill="#FCFCFC"/>
<path fill-rule="evenodd" clip-rule="evenodd" d="M4.50186 0.762695L4.57651 0.990143L4.81943 0.989777L4.62259 1.12988L4.69815 1.35706L4.50186 1.21616L4.30554 1.35706L4.3811 1.12988L4.1843 0.989777L4.42722 0.990143L4.50186 0.762695Z" fill="#FCFCFC"/>
<path fill-rule="evenodd" clip-rule="evenodd" d="M7.07483 0.762695L7.14948 0.990143L7.39246 0.989777L7.19568 1.12988L7.27115 1.35706L7.07483 1.21616L6.87854 1.35706L6.9541 1.12988L6.75723 0.989777L7.00024 0.990143L7.07483 0.762695Z" fill="#FCFCFC"/>
<path fill-rule="evenodd" clip-rule="evenodd" d="M1.28571 1.38232L1.36035 1.6098L1.60336 1.60931L1.40656 1.74951L1.48209 1.97668L1.28571 1.83582L1.08939 1.97668L1.16498 1.74951L0.96814 1.60931L1.21112 1.6098L1.28571 1.38232Z" fill="#FCFCFC"/>
<path fill-rule="evenodd" clip-rule="evenodd" d="M3.85876 1.38232L3.93344 1.6098L4.17636 1.60931L3.97949 1.74951L4.05499 1.97668L3.85876 1.83582L3.66238 1.97668L3.73795 1.74951L3.54111 1.60931L3.78415 1.6098L3.85876 1.38232Z" fill="#FCFCFC"/>
<path fill-rule="evenodd" clip-rule="evenodd" d="M6.43164 1.38232L6.50623 1.6098L6.74933 1.60931L6.55243 1.74951L6.62796 1.97668L6.43164 1.83582L6.23535 1.97668L6.31085 1.74951L6.11401 1.60931L6.35699 1.6098L6.43164 1.38232Z" fill="#FCFCFC"/>
<path fill-rule="evenodd" clip-rule="evenodd" d="M2.57233 1.38232L2.64691 1.6098L2.88989 1.60931L2.69312 1.74951L2.76862 1.97668L2.57233 1.83582L2.37604 1.97668L2.45157 1.74951L2.25464 1.60931L2.49774 1.6098L2.57233 1.38232Z" fill="#FCFCFC"/>
<path fill-rule="evenodd" clip-rule="evenodd" d="M5.14508 1.38232L5.21982 1.6098L5.46271 1.60931L5.26596 1.74951L5.34149 1.97668L5.14508 1.83582L4.94891 1.97668L5.02435 1.74951L4.82758 1.60931L5.0705 1.6098L5.14508 1.38232Z" fill="#FCFCFC"/>
<path fill-rule="evenodd" clip-rule="evenodd" d="M0.642456 2.01294L0.717163 2.24036L0.960144 2.23999L0.763306 2.3801L0.838867 2.60727L0.642456 2.46643L0.446289 2.60727L0.52179 2.3801L0.324951 2.23999L0.567871 2.24036L0.642456 2.01294Z" fill="#FCFCFC"/>
<path fill-rule="evenodd" clip-rule="evenodd" d="M3.21555 2.01294L3.29016 2.24036L3.53317 2.23999L3.33627 2.3801L3.41183 2.60727L3.21555 2.46643L3.0192 2.60727L3.0947 2.3801L2.89786 2.23999L3.14084 2.24036L3.21555 2.01294Z" fill="#FCFCFC"/>
<path fill-rule="evenodd" clip-rule="evenodd" d="M5.7883 2.01294L5.86301 2.24036L6.10605 2.23999L5.90912 2.3801L5.98465 2.60727L5.7883 2.46643L5.59207 2.60727L5.66757 2.3801L5.47076 2.23999L5.71378 2.24036L5.7883 2.01294Z" fill="#FCFCFC"/>
<path fill-rule="evenodd" clip-rule="evenodd" d="M1.92896 2.01294L2.0036 2.24036L2.24649 2.23999L2.04968 2.3801L2.12524 2.60727L1.92896 2.46643L1.7326 2.60727L1.80814 2.3801L1.61139 2.23999L1.85431 2.24036L1.92896 2.01294Z" fill="#FCFCFC"/>
<path fill-rule="evenodd" clip-rule="evenodd" d="M4.50186 2.01294L4.57651 2.24036L4.81943 2.23999L4.62259 2.3801L4.69815 2.60727L4.50186 2.46643L4.30554 2.60727L4.3811 2.3801L4.1843 2.23999L4.42722 2.24036L4.50186 2.01294Z" fill="#FCFCFC"/>
<path fill-rule="evenodd" clip-rule="evenodd" d="M7.07483 2.01294L7.14948 2.24036L7.39246 2.23999L7.19568 2.3801L7.27115 2.60727L7.07483 2.46643L6.87854 2.60727L6.9541 2.3801L6.75723 2.23999L7.00024 2.24036L7.07483 2.01294Z" fill="#FCFCFC"/>
<path fill-rule="evenodd" clip-rule="evenodd" d="M1.28571 2.63232L1.36035 2.85986L1.60336 2.85938L1.40656 2.99954L1.48209 3.22678L1.28571 3.08591L1.08939 3.22678L1.16498 2.99954L0.96814 2.85938L1.21112 2.85986L1.28571 2.63232Z" fill="#FCFCFC"/>
<path fill-rule="evenodd" clip-rule="evenodd" d="M3.85876 2.63232L3.93344 2.85986L4.17636 2.85938L3.97949 2.99954L4.05499 3.22678L3.85876 3.08591L3.66238 3.22678L3.73795 2.99954L3.54111 2.85938L3.78415 2.85986L3.85876 2.63232Z" fill="#FCFCFC"/>
<path fill-rule="evenodd" clip-rule="evenodd" d="M6.43164 2.63232L6.50623 2.85986L6.74933 2.85938L6.55243 2.99954L6.62796 3.22678L6.43164 3.08591L6.23535 3.22678L6.31085 2.99954L6.11401 2.85938L6.35699 2.85986L6.43164 2.63232Z" fill="#FCFCFC"/>
<path fill-rule="evenodd" clip-rule="evenodd" d="M2.57233 2.63232L2.64691 2.85986L2.88989 2.85938L2.69312 2.99954L2.76862 3.22678L2.57233 3.08591L2.37604 3.22678L2.45157 2.99954L2.25464 2.85938L2.49774 2.85986L2.57233 2.63232Z" fill="#FCFCFC"/>
<path fill-rule="evenodd" clip-rule="evenodd" d="M5.14508 2.63232L5.21982 2.85986L5.46271 2.85938L5.26596 2.99954L5.34149 3.22678L5.14508 3.08591L4.94891 3.22678L5.02435 2.99954L4.82758 2.85938L5.0705 2.85986L5.14508 2.63232Z" fill="#FCFCFC"/>
<path fill-rule="evenodd" clip-rule="evenodd" d="M0.642456 3.26294L0.717163 3.49048L0.960144 3.48999L0.763306 3.63013L0.838867 3.8573L0.642456 3.71649L0.446289 3.8573L0.52179 3.63013L0.324951 3.48999L0.567871 3.49048L0.642456 3.26294Z" fill="#FCFCFC"/>
<path fill-rule="evenodd" clip-rule="evenodd" d="M3.21555 3.26294L3.29016 3.49048L3.53317 3.48999L3.33627 3.63013L3.41183 3.8573L3.21555 3.71649L3.0192 3.8573L3.0947 3.63013L2.89786 3.48999L3.14084 3.49048L3.21555 3.26294Z" fill="#FCFCFC"/>
<path fill-rule="evenodd" clip-rule="evenodd" d="M5.7883 3.26294L5.86301 3.49048L6.10605 3.48999L5.90912 3.63013L5.98465 3.8573L5.7883 3.71649L5.59207 3.8573L5.66757 3.63013L5.47076 3.48999L5.71378 3.49048L5.7883 3.26294Z" fill="#FCFCFC"/>
<path fill-rule="evenodd" clip-rule="evenodd" d="M1.92896 3.26294L2.0036 3.49048L2.24649 3.48999L2.04968 3.63013L2.12524 3.8573L1.92896 3.71649L1.7326 3.8573L1.80814 3.63013L1.61139 3.48999L1.85431 3.49048L1.92896 3.26294Z" fill="#FCFCFC"/>
<path fill-rule="evenodd" clip-rule="evenodd" d="M4.50186 3.26294L4.57651 3.49048L4.81943 3.48999L4.62259 3.63013L4.69815 3.8573L4.50186 3.71649L4.30554 3.8573L4.3811 3.63013L4.1843 3.48999L4.42722 3.49048L4.50186 3.26294Z" fill="#FCFCFC"/>
<path fill-rule="evenodd" clip-rule="evenodd" d="M7.07483 3.26294L7.14948 3.49048L7.39246 3.48999L7.19568 3.63013L7.27115 3.8573L7.07483 3.71649L6.87854 3.8573L6.9541 3.63013L6.75723 3.48999L7.00024 3.49048L7.07483 3.26294Z" fill="#FCFCFC"/>
<path fill-rule="evenodd" clip-rule="evenodd" d="M1.28571 3.88257L1.36035 4.11005L1.60336 4.10962L1.40656 4.24976L1.48209 4.47696L1.28571 4.33609L1.08939 4.47696L1.16498 4.24976L0.96814 4.10962L1.21112 4.11005L1.28571 3.88257Z" fill="#FCFCFC"/>
<path fill-rule="evenodd" clip-rule="evenodd" d="M3.85876 3.88257L3.93344 4.11005L4.17636 4.10962L3.97949 4.24976L4.05499 4.47696L3.85876 4.33609L3.66238 4.47696L3.73795 4.24976L3.54111 4.10962L3.78415 4.11005L3.85876 3.88257Z" fill="#FCFCFC"/>
<path fill-rule="evenodd" clip-rule="evenodd" d="M6.43164 3.88257L6.50623 4.11005L6.74933 4.10962L6.55243 4.24976L6.62796 4.47696L6.43164 4.33609L6.23535 4.47696L6.31085 4.24976L6.11401 4.10962L6.35699 4.11005L6.43164 3.88257Z" fill="#FCFCFC"/>
<path fill-rule="evenodd" clip-rule="evenodd" d="M2.57233 3.88257L2.64691 4.11005L2.88989 4.10962L2.69312 4.24976L2.76862 4.47696L2.57233 4.33609L2.37604 4.47696L2.45157 4.24976L2.25464 4.10962L2.49774 4.11005L2.57233 3.88257Z" fill="#FCFCFC"/>
<path fill-rule="evenodd" clip-rule="evenodd" d="M5.14508 3.88257L5.21982 4.11005L5.46271 4.10962L5.26596 4.24976L5.34149 4.47696L5.14508 4.33609L4.94891 4.47696L5.02435 4.24976L4.82758 4.10962L5.0705 4.11005L5.14508 3.88257Z" fill="#FCFCFC"/>
<path fill-rule="evenodd" clip-rule="evenodd" d="M0.642456 4.51318L0.717163 4.74066L0.960144 4.7402L0.763306 4.88037L0.838867 5.10757L0.642456 4.96674L0.446289 5.10757L0.52179 4.88037L0.324951 4.7402L0.567871 4.74066L0.642456 4.51318Z" fill="#FCFCFC"/>
<path fill-rule="evenodd" clip-rule="evenodd" d="M3.21555 4.51318L3.29016 4.74066L3.53317 4.7402L3.33627 4.88037L3.41183 5.10757L3.21555 4.96674L3.0192 5.10757L3.0947 4.88037L2.89786 4.7402L3.14084 4.74066L3.21555 4.51318Z" fill="#FCFCFC"/>
<path fill-rule="evenodd" clip-rule="evenodd" d="M5.7883 4.51318L5.86301 4.74066L6.10605 4.7402L5.90912 4.88037L5.98465 5.10757L5.7883 4.96674L5.59207 5.10757L5.66757 4.88037L5.47076 4.7402L5.71378 4.74066L5.7883 4.51318Z" fill="#FCFCFC"/>
<path fill-rule="evenodd" clip-rule="evenodd" d="M1.92896 4.51318L2.0036 4.74066L2.24649 4.7402L2.04968 4.88037L2.12524 5.10757L1.92896 4.96674L1.7326 5.10757L1.80814 4.88037L1.61139 4.7402L1.85431 4.74066L1.92896 4.51318Z" fill="#FCFCFC"/>
<path fill-rule="evenodd" clip-rule="evenodd" d="M4.50186 4.51318L4.57651 4.74066L4.81943 4.7402L4.62259 4.88037L4.69815 5.10757L4.50186 4.96674L4.30554 5.10757L4.3811 4.88037L4.1843 4.7402L4.42722 4.74066L4.50186 4.51318Z" fill="#FCFCFC"/>
<path fill-rule="evenodd" clip-rule="evenodd" d="M7.07483 4.51318L7.14948 4.74066L7.39246 4.7402L7.19568 4.88037L7.27115 5.10757L7.07483 4.96674L6.87854 5.10757L6.9541 4.88037L6.75723 4.7402L7.00024 4.74066L7.07483 4.51318Z" fill="#FCFCFC"/>
<path fill-rule="evenodd" clip-rule="evenodd" d="M1.28571 5.13281L1.36035 5.36023L1.60336 5.3598L1.40656 5.49997L1.48209 5.72711L1.28571 5.58624L1.08939 5.72711L1.16498 5.49997L0.96814 5.3598L1.21112 5.36023L1.28571 5.13281Z" fill="#FCFCFC"/>
<path fill-rule="evenodd" clip-rule="evenodd" d="M3.85876 5.13281L3.93344 5.36023L4.17636 5.3598L3.97949 5.49997L4.05499 5.72711L3.85876 5.58624L3.66238 5.72711L3.73795 5.49997L3.54111 5.3598L3.78415 5.36023L3.85876 5.13281Z" fill="#FCFCFC"/>
<path fill-rule="evenodd" clip-rule="evenodd" d="M6.43164 5.13281L6.50623 5.36023L6.74933 5.3598L6.55243 5.49997L6.62796 5.72711L6.43164 5.58624L6.23535 5.72711L6.31085 5.49997L6.11401 5.3598L6.35699 5.36023L6.43164 5.13281Z" fill="#FCFCFC"/>
<path fill-rule="evenodd" clip-rule="evenodd" d="M2.57233 5.13281L2.64691 5.36023L2.88989 5.3598L2.69312 5.49997L2.76862 5.72711L2.57233 5.58624L2.37604 5.72711L2.45157 5.49997L2.25464 5.3598L2.49774 5.36023L2.57233 5.13281Z" fill="#FCFCFC"/>
<path fill-rule="evenodd" clip-rule="evenodd" d="M5.14508 5.13281L5.21982 5.36023L5.46271 5.3598L5.26596 5.49997L5.34149 5.72711L5.14508 5.58624L4.94891 5.72711L5.02435 5.49997L4.82758 5.3598L5.0705 5.36023L5.14508 5.13281Z" fill="#FCFCFC"/>
<path fill-rule="evenodd" clip-rule="evenodd" d="M0.642456 5.76318L0.717163 5.99072L0.960144 5.99023L0.763306 6.13037L0.838867 6.3576L0.642456 6.21667L0.446289 6.3576L0.52179 6.13037L0.324951 5.99023L0.567871 5.99072L0.642456 5.76318Z" fill="#FCFCFC"/>
<path fill-rule="evenodd" clip-rule="evenodd" d="M3.21555 5.76318L3.29016 5.99072L3.53317 5.99023L3.33627 6.13037L3.41183 6.3576L3.21555 6.21667L3.0192 6.3576L3.0947 6.13037L2.89786 5.99023L3.14084 5.99072L3.21555 5.76318Z" fill="#FCFCFC"/>
<path fill-rule="evenodd" clip-rule="evenodd" d="M5.7883 5.76318L5.86301 5.99072L6.10605 5.99023L5.90912 6.13037L5.98465 6.3576L5.7883 6.21667L5.59207 6.3576L5.66757 6.13037L5.47076 5.99023L5.71378 5.99072L5.7883 5.76318Z" fill="#FCFCFC"/>
<path fill-rule="evenodd" clip-rule="evenodd" d="M1.92896 5.76318L2.0036 5.99072L2.24649 5.99023L2.04968 6.13037L2.12524 6.3576L1.92896 6.21667L1.7326 6.3576L1.80814 6.13037L1.61139 5.99023L1.85431 5.99072L1.92896 5.76318Z" fill="#FCFCFC"/>
<path fill-rule="evenodd" clip-rule="evenodd" d="M4.50186 5.76318L4.57651 5.99072L4.81943 5.99023L4.62259 6.13037L4.69815 6.3576L4.50186 6.21667L4.30554 6.3576L4.3811 6.13037L4.1843 5.99023L4.42722 5.99072L4.50186 5.76318Z" fill="#FCFCFC"/>
<path fill-rule="evenodd" clip-rule="evenodd" d="M7.07483 5.76318L7.14948 5.99072L7.39246 5.99023L7.19568 6.13037L7.27115 6.3576L7.07483 6.21667L6.87854 6.3576L6.9541 6.13037L6.75723 5.99023L7.00024 5.99072L7.07483 5.76318Z" fill="#FCFCFC"/>
</svg>
