<svg width="27" height="25" viewBox="0 0 27 25" fill="none" xmlns="http://www.w3.org/2000/svg">
<path d="M7.94419 23.7637C6.86287 24.3276 5.59684 23.4176 5.80357 22.22L6.86531 16.0759L2.36634 11.7249C1.48808 10.8772 1.97247 9.39956 3.18345 9.22587L9.39981 8.32925L12.1765 2.73428C12.7159 1.6444 14.2816 1.6444 14.8235 2.73428L17.6002 8.32925L23.8166 9.22587C25.0276 9.39956 25.512 10.8772 24.6337 11.7249L20.1347 16.0759L21.1965 22.22C21.4032 23.4176 20.1372 24.3276 19.0558 23.7637L13.5 20.8659L7.94419 23.7637Z" stroke="black" stroke-width="2" stroke-linecap="round" stroke-linejoin="round"/>
<path d="M15.5387 12.5182L12.9907 15.0662L11.4605 13.5372" stroke="black" stroke-width="2" stroke-linecap="round" stroke-linejoin="round"/>
</svg>
