<svg width="102" height="27" viewBox="0 0 102 27" fill="none" xmlns="http://www.w3.org/2000/svg">
<path d="M3.84305 0.232178L0.465042 3.61019L7.02964 10.1748L0.587278 16.6171L3.92099 19.9516L10.3634 13.5091L13.7414 10.1311L16.9007 6.97176L20.3046 3.56871L16.9701 0.23437L13.567 3.63742L10.4076 6.7974L3.84305 0.232178Z" fill="#03985B"/>
<rect x="11.7628" y="16.5146" width="4.77722" height="6.38361" transform="rotate(-45 11.7628 16.5146)" fill="#03985B"/>
<rect x="19.9451" y="23.0605" width="4.77722" height="4.7469" transform="rotate(-45 19.9451 23.0605)" fill="#03985B"/>
<path d="M31.8435 15.1076L28.4397 18.5107L25.0831 15.1541L21.4149 11.4852L16.9007 6.97165L20.3045 3.5686L31.8435 15.1076Z" fill="#03985B"/>
<path d="M49.9098 1.77905V5.48558H40.9454V10.1977H48.3008V13.7317H40.9454V21.8917H36.6355V1.77905H49.9098Z" fill="#03985B"/>
<rect x="52.2653" y="1.77905" width="4.30988" height="20.1126" fill="#03985B"/>
<path d="M59.0171 1.77905H64.2464L68.2115 8.10012L72.2627 1.77905H76.9748L70.7111 11.6342L77.2909 21.8917H72.0329L67.7518 15.1396L63.3843 21.8917H58.701L65.2808 11.6342L59.0171 1.77905Z" fill="#03985B"/>
<rect x="79.4453" y="1.77905" width="4.30988" height="20.1126" fill="#03985B"/>
<path d="M86.0821 1.77905V5.48558H91.8863V21.8917H96.1958V5.48558H102V1.77905H86.0821Z" fill="#03985B"/>
</svg>
