<svg width="20" height="20" viewBox="0 0 20 20" fill="none" xmlns="http://www.w3.org/2000/svg">
<path d="M10 5.21753C11.381 5.21753 12.5 6.33653 12.5 7.71753C12.5 9.09853 11.381 10.2175 10 10.2175C8.619 10.2175 7.5 9.09853 7.5 7.71753C7.5 6.33653 8.619 5.21753 10 5.21753Z" stroke="black" stroke-width="1.5" stroke-linecap="round" stroke-linejoin="round"/>
<path d="M14.5 14.2175C14.369 13.8885 14.166 13.5925 13.906 13.3515C13.467 12.9435 12.892 12.7175 12.292 12.7175H7.708C7.108 12.7175 6.534 12.9445 6.094 13.3515C5.834 13.5925 5.631 13.8885 5.5 14.2175" stroke="black" stroke-width="1.5" stroke-linecap="round" stroke-linejoin="round"/>
<path d="M8.49996 19.0824C5.78896 18.6264 3.49096 16.9644 2.17896 14.6604" stroke="black" stroke-width="1.5" stroke-linecap="round" stroke-linejoin="round"/>
<path d="M3.15 4.38745C1.812 5.95845 1 7.99145 1 10.2175C1 10.7725 1.057 11.3135 1.153 11.8405" stroke="black" stroke-width="1.5" stroke-linecap="round" stroke-linejoin="round"/>
<path d="M11.5 19.0824C14.211 18.6264 16.509 16.9644 17.821 14.6604" stroke="black" stroke-width="1.5" stroke-linecap="round" stroke-linejoin="round"/>
<path d="M14.55 2.46153C13.214 1.67553 11.662 1.21753 9.99995 1.21753C8.33795 1.21753 6.78695 1.67553 5.44995 2.46153" stroke="black" stroke-width="1.5" stroke-linecap="round" stroke-linejoin="round"/>
<path d="M16.8501 4.38745C18.1881 5.95845 19.0001 7.99145 19.0001 10.2175C19.0001 10.7725 18.9431 11.3135 18.8471 11.8405" stroke="black" stroke-width="1.5" stroke-linecap="round" stroke-linejoin="round"/>
</svg>
