<svg width="20" height="20" viewBox="0 0 20 20" fill="none" xmlns="http://www.w3.org/2000/svg">
<path d="M1 6C1 3.23858 3.23858 1 6 1H14C16.7614 1 19 3.23858 19 6V14C19 16.7614 16.7614 19 14 19H6C3.23858 19 1 16.7614 1 14V6Z" stroke="white" stroke-width="1.5" stroke-linecap="round" stroke-linejoin="round"/>
<path d="M9.99998 10.711L11.327 9.974C11.989 9.606 12.4 8.908 12.4 8.15C12.4 6.963 11.317 6 9.98098 6C8.77497 6 7.78298 6.786 7.59998 7.812" stroke="white" stroke-width="1.5" stroke-linecap="round" stroke-linejoin="round"/>
<path d="M10.1 13.9C10.1 13.955 10.055 14 10 14C9.94502 14 9.90002 13.955 9.90002 13.9C9.90002 13.845 9.94502 13.8 10 13.8C10.055 13.8 10.1 13.845 10.1 13.9Z" stroke="white" stroke-width="1.5" stroke-linecap="round" stroke-linejoin="round"/>
</svg>
