<svg width="20" height="20" viewBox="0 0 20 20" fill="none" xmlns="http://www.w3.org/2000/svg">
<path d="M1 5.496C1 3.01293 3.01293 1 5.496 1H14.505C16.9875 1 19 3.01248 19 5.49501V14.504C19 16.9871 16.9871 19 14.504 19H5.49599C3.01293 19 1 16.9871 1 14.504V5.496Z" stroke="white" stroke-width="1.5" stroke-linecap="round" stroke-linejoin="round"/>
<path d="M14.9493 4.71198C14.7633 4.71398 14.6123 4.86497 14.6123 5.05098C14.6133 5.23598 14.7643 5.38698 14.9503 5.38698C15.1363 5.38698 15.2873 5.23598 15.2873 5.05098C15.2873 4.86298 15.1353 4.71198 14.9493 4.71198Z" stroke="white" stroke-width="1.5" stroke-linecap="round" stroke-linejoin="round"/>
<circle cx="10.0003" cy="10" r="3.6" stroke="white" stroke-width="1.5" stroke-linecap="round" stroke-linejoin="round"/>
</svg>
