<svg width="19" height="25" viewBox="0 0 19 25" fill="none" xmlns="http://www.w3.org/2000/svg">
<line x1="10.4395" y1="23.0471" x2="8.55167" y2="23.0471" stroke="white" stroke-width="2" stroke-linecap="round" stroke-linejoin="round"/>
<path d="M15.5701 9.93671V9.89784C15.5701 6.54341 12.8499 3.82318 9.49548 3.82318C6.14106 3.82318 3.42083 6.54341 3.42083 9.89784V9.93671V12.94C3.42083 13.3337 3.1985 13.6921 2.84738 13.8682L2.23627 14.1744C1.47329 14.5559 0.990967 15.3359 0.990967 16.1887C0.990967 17.4328 1.99936 18.4412 3.24345 18.4412H15.7475C16.9916 18.4412 18 17.4328 18 16.1887C18 15.3359 17.5177 14.5559 16.7547 14.1744L16.1436 13.8682C15.7925 13.6921 15.5701 13.3337 15.5701 12.94V9.93671Z" stroke="white" stroke-width="2" stroke-linecap="round" stroke-linejoin="round"/>
<path d="M17.9404 5.09767C17.0754 3.57901 15.8143 2.31791 14.2957 1.45288" stroke="white" stroke-width="2" stroke-linecap="round" stroke-linejoin="round"/>
<path d="M1.05054 5.09767C1.91557 3.57901 3.17667 2.31791 4.69533 1.45288" stroke="white" stroke-width="2" stroke-linecap="round" stroke-linejoin="round"/>
</svg>
