<svg width="20" height="20" viewBox="0 0 20 20" fill="none" xmlns="http://www.w3.org/2000/svg">
<circle cx="10" cy="9.99999" r="2.7" stroke="white" stroke-width="1.5" stroke-linecap="round" stroke-linejoin="round"/>
<path d="M3.24999 10C3.24999 10.297 3.27699 10.594 3.31299 10.882L1.72499 12.124C1.37299 12.399 1.27699 12.893 1.50099 13.28L2.91299 15.723C3.13599 16.11 3.60999 16.273 4.02499 16.107L5.44599 15.536C5.72699 15.423 6.03999 15.468 6.29199 15.635C6.51199 15.78 6.73999 15.915 6.97599 16.035C7.24599 16.172 7.44299 16.417 7.48599 16.716L7.70299 18.23C7.76599 18.672 8.14499 19 8.59099 19H11.409C11.855 19 12.234 18.672 12.297 18.23L12.514 16.718C12.557 16.418 12.755 16.171 13.026 16.035C13.261 15.917 13.488 15.785 13.707 15.639C13.96 15.471 14.274 15.423 14.557 15.537L15.975 16.107C16.39 16.273 16.864 16.11 17.087 15.723L18.499 13.28C18.723 12.893 18.627 12.399 18.275 12.124L16.687 10.882C16.723 10.594 16.75 10.297 16.75 10C16.75 9.703 16.723 9.406 16.687 9.118L18.275 7.876C18.627 7.601 18.723 7.107 18.499 6.72L17.087 4.277C16.864 3.89 16.39 3.727 15.975 3.893L14.557 4.463C14.274 4.577 13.96 4.529 13.707 4.361C13.488 4.215 13.261 4.083 13.026 3.965C12.755 3.829 12.557 3.582 12.514 3.282L12.297 1.77C12.234 1.328 11.855 1 11.409 1H8.59099C8.14499 1 7.76599 1.328 7.70299 1.77L7.48599 3.284C7.44299 3.583 7.24599 3.828 6.97599 3.965C6.73999 4.085 6.51199 4.22 6.29199 4.365C6.03999 4.532 5.72699 4.577 5.44599 4.464L4.02499 3.893C3.60999 3.727 3.13599 3.89 2.91299 4.277L1.50099 6.72C1.27699 7.107 1.37299 7.601 1.72499 7.876L3.31299 9.118C3.27699 9.406 3.24999 9.703 3.24999 10Z" stroke="white" stroke-width="1.5" stroke-linecap="round" stroke-linejoin="round"/>
</svg>
