<svg width="20" height="20" viewBox="0 0 20 20" fill="none" xmlns="http://www.w3.org/2000/svg">
<path d="M14.882 5.882C14.882 3.186 12.696 1 10 1C7.304 1 5.118 3.186 5.118 5.882C5.118 10.155 4.90601 12.291 1 14C3 14.882 3 14.882 4 17C7 17 8 19 10 19C12 19 13 17 16 17C17 14.882 17 14.882 19 14C15.095 12.291 14.882 10.155 14.882 5.882Z" stroke="white" stroke-width="1.5" stroke-linecap="round" stroke-linejoin="round"/>
<path d="M1 14C5 11.882 5 9.88196 2 6.88196" stroke="white" stroke-width="1.5" stroke-linecap="round" stroke-linejoin="round"/>
<path d="M19 14C15 11.882 15 9.88196 18 6.88196" stroke="white" stroke-width="1.5" stroke-linecap="round" stroke-linejoin="round"/>
</svg>
