<svg width="20" height="19" viewBox="0 0 20 19" fill="none" xmlns="http://www.w3.org/2000/svg">
<path d="M17 18C18.105 18 19 17.105 19 16V10C19 9.448 18.552 9 18 9H15V16C15 17.105 15.895 18 17 18Z" stroke="white" stroke-width="1.5" stroke-linecap="round" stroke-linejoin="round"/>
<line x1="5.75" y1="4.25" x2="10.25" y2="4.25" stroke="white" stroke-width="1.5" stroke-linecap="round" stroke-linejoin="round"/>
<line x1="5.75" y1="8.1225" x2="10.25" y2="8.1225" stroke="white" stroke-width="1.5" stroke-linecap="round" stroke-linejoin="round"/>
<line x1="5.75" y1="12.309" x2="7.25" y2="12.309" stroke="white" stroke-width="1.5" stroke-linecap="round" stroke-linejoin="round"/>
<path d="M15 9V2C15 1.448 14.552 1 14 1H2C1.448 1 1 1.448 1 2V16C1 17.105 1.895 18 3 18H17" stroke="white" stroke-width="1.5" stroke-linecap="round" stroke-linejoin="round"/>
</svg>
