<svg width="20" height="30" viewBox="0 0 20 30" fill="none" xmlns="http://www.w3.org/2000/svg">
<path d="M13.7895 20.2124C14.3106 20.2124 14.7369 20.6387 14.7369 21.1598C14.7369 21.6809 14.3106 22.1072 13.7895 22.1072H6.21055C5.6895 22.1072 5.26318 21.6809 5.26318 21.1598C5.26318 20.6387 5.6895 20.2124 6.21055 20.2124H9.05266H10.9474H13.7895Z" fill="#F2F2FF"/>
<path d="M7.63161 21.1598C7.63161 20.6387 7.84476 20.2124 8.10529 20.2124H6.21055C5.6895 20.2124 5.26318 20.6387 5.26318 21.1598C5.26318 21.6809 5.6895 22.1072 6.21055 22.1072H8.10529C7.84476 22.1072 7.63161 21.6809 7.63161 21.1598Z" fill="#DADAF2"/>
<path d="M13.7894 24.0019C13.7894 25.044 12.9368 25.8967 11.8947 25.8967H8.10519C7.06308 25.8967 6.21045 25.044 6.21045 24.0019V22.1072H13.7894V24.0019Z" fill="#F2F2FF"/>
<path d="M8.57887 24.0019V22.1072H6.21045V24.0019C6.21045 25.044 7.06308 25.8967 8.10519 25.8967H9.2894C8.89813 25.8967 8.57887 25.044 8.57887 24.0019Z" fill="#DADAF2"/>
<path d="M9.73485 1.26508C5.178 1.40718 1.44537 5.29139 1.47379 9.83876C1.49274 12.624 2.85695 15.0777 4.94116 16.6124C5.77485 17.2282 6.21064 19.1798 6.21064 20.2124H9.05274H10.9475H13.7896C13.7896 19.1514 14.2822 17.1998 15.1254 16.5651C17.1812 15.0209 18.5264 12.5672 18.5264 9.79139C18.5264 4.99771 14.5664 1.12297 9.73485 1.26508Z" fill="#FFD580"/>
<path d="M5.73695 9.83876C5.72274 5.30181 7.58053 1.42708 9.85137 1.26792C9.81253 1.26792 9.77464 1.26413 9.73485 1.26508C5.178 1.40718 1.44537 5.29139 1.47379 9.83876C1.49274 12.624 2.85695 15.0777 4.94116 16.6124C5.77485 17.2282 6.21064 19.1798 6.21064 20.2124H8.10537C8.10537 19.1798 7.88748 17.2282 7.47064 16.6124C6.42853 15.0777 5.74643 12.624 5.73695 9.83876Z" fill="#FFBF66"/>
<path d="M11.8947 25.8966V26.844C11.8947 27.8861 11.0421 28.7387 9.99996 28.7387C8.95786 28.7387 8.10522 27.8861 8.10522 26.844V25.8966H11.8947Z" fill="#DADAF2"/>
<path d="M6.21055 22.1072C5.6895 22.1072 5.26318 21.6809 5.26318 21.1598C5.26318 20.6387 5.6895 20.2124 6.21055 20.2124" stroke="#45454D" stroke-linecap="round" stroke-linejoin="round"/>
<path d="M13.7896 20.2124C14.3106 20.2124 14.7369 20.6387 14.7369 21.1598C14.7369 21.6809 14.3106 22.1072 13.7896 22.1072" stroke="#45454D" stroke-linecap="round" stroke-linejoin="round"/>
<path d="M8.10519 25.8967C7.06308 25.8967 6.21045 25.044 6.21045 24.0019V22.1072H13.7894V24.0019C13.7894 25.044 12.9368 25.8967 11.8947 25.8967" stroke="#45454D" stroke-linecap="round" stroke-linejoin="round"/>
<line x1="12.395" y1="23.5019" x2="13.2898" y2="23.5019" stroke="#45454D" stroke-linecap="round" stroke-linejoin="round"/>
<line x1="6.71069" y1="23.5019" x2="7.60543" y2="23.5019" stroke="#45454D" stroke-linecap="round" stroke-linejoin="round"/>
<path d="M10.9475 20.2124H13.7896C13.7896 19.1514 14.2822 17.1998 15.1254 16.5651C17.1812 15.0209 18.5264 12.5672 18.5264 9.79139C18.5264 4.99771 14.5664 1.12297 9.73485 1.26508C5.178 1.40718 1.44537 5.29139 1.47379 9.83876C1.49274 12.624 2.85695 15.0777 4.94116 16.6124C5.77485 17.2282 6.21064 19.1798 6.21064 20.2124H9.05274" stroke="#45454D" stroke-linecap="round" stroke-linejoin="round"/>
<path d="M11.8947 25.8966V26.844C11.8947 27.8861 11.0421 28.7387 9.99996 28.7387C8.95786 28.7387 8.10522 27.8861 8.10522 26.844V25.8966H11.8947Z" stroke="#45454D" stroke-linecap="round" stroke-linejoin="round"/>
<path d="M13.5242 9.80087C13.2021 10.3598 12.5863 10.7388 11.8947 10.7388C10.8526 10.7388 10 9.88613 10 8.84402" stroke="#45454D" stroke-linecap="round" stroke-linejoin="round"/>
<path d="M13.5242 9.80087L13.7894 8.84402C13.7894 9.19455 13.6947 9.51666 13.5242 9.80087Z" stroke="#45454D" stroke-linecap="round" stroke-linejoin="round"/>
<path d="M6.46655 9.79138L9.05287 20.2124H10.9476L13.5244 9.80085" stroke="#45454D" stroke-linecap="round" stroke-linejoin="round"/>
<path d="M6.46624 9.79139C6.3715 9.63034 6.29571 9.45982 6.25782 9.27034C6.2294 9.12823 6.21045 8.98613 6.21045 8.84402L6.46624 9.79139Z" stroke="#45454D" stroke-linecap="round" stroke-linejoin="round"/>
<path d="M9.99999 8.84402C9.99999 9.88613 9.14736 10.7388 8.10526 10.7388C7.4042 10.7388 6.78841 10.3598 6.46631 9.79139" stroke="#45454D" stroke-linecap="round" stroke-linejoin="round"/>
</svg>
